{
	"asset":{
		"generator":"Khronos glTF Blender I/O v4.1.63",
		"version":"2.0"
	},
	"extensionsUsed":[
		"KHR_lights_punctual"
	],
	"extensionsRequired":[
		"KHR_lights_punctual"
	],
	"extensions":{
		"KHR_lights_punctual":{
			"lights":[
				{
					"color":[
						1,
						1,
						1
					],
					"intensity":163054.2391976468,
					"type":"point",
					"name":"Point.001"
				},
				{
					"color":[
						1,
						0,
						0
					],
					"intensity":54351.41306588226,
					"type":"point",
					"name":"Point.002"
				},
				{
					"color":[
						0,
						0,
						1
					],
					"intensity":54351.41306588226,
					"type":"point",
					"name":"Point.003"
				},
				{
					"color":[
						0,
						0,
						1
					],
					"intensity":54351.41306588226,
					"type":"point",
					"name":"Point.004"
				},
				{
					"color":[
						0,
						0,
						1
					],
					"intensity":54351.41306588226,
					"type":"point",
					"name":"Point.005"
				},
				{
					"color":[
						0,
						0,
						1
					],
					"intensity":54351.41306588226,
					"type":"point",
					"name":"Point.006"
				},
				{
					"color":[
						1,
						0,
						0
					],
					"intensity":54351.41306588226,
					"type":"point",
					"name":"Point.007"
				},
				{
					"color":[
						1,
						0,
						0
					],
					"intensity":54351.41306588226,
					"type":"point",
					"name":"Point.008"
				},
				{
					"color":[
						1,
						0,
						0
					],
					"intensity":54351.41306588226,
					"type":"point",
					"name":"Point.009"
				},
				{
					"color":[
						0,
						0,
						1
					],
					"intensity":54351.41306588226,
					"type":"point",
					"name":"Point.010"
				},
				{
					"color":[
						0,
						0,
						1
					],
					"intensity":54351.41306588226,
					"type":"point",
					"name":"Point.011"
				},
				{
					"color":[
						1,
						1,
						1
					],
					"intensity":163054.2391976468,
					"type":"point",
					"name":"Point.012"
				},
				{
					"color":[
						1,
						1,
						1
					],
					"intensity":163054.2391976468,
					"type":"point",
					"name":"Point.013"
				}
			]
		}
	},
	"scene":0,
	"scenes":[
		{
			"name":"Scene",
			"nodes":[
				0,
				1,
				2,
				3,
				4,
				5,
				6,
				7,
				8,
				9,
				10,
				11,
				12,
				13,
				14,
				15,
				16
			]
		}
	],
	"nodes":[
		{
			"mesh":0,
			"name":"Map"
		},
		{
			"extensions":{
				"KHR_lights_punctual":{
					"light":0
				}
			},
			"name":"Point",
			"rotation":[
				-0.7071068286895752,
				0,
				0,
				0.7071068286895752
			],
			"translation":[
				0,
				20,
				15
			]
		},
		{
			"extensions":{
				"KHR_lights_punctual":{
					"light":1
				}
			},
			"name":"Point.001",
			"rotation":[
				-0.7071068286895752,
				0,
				0,
				0.7071068286895752
			],
			"translation":[
				0,
				5,
				-45
			]
		},
		{
			"extensions":{
				"KHR_lights_punctual":{
					"light":2
				}
			},
			"name":"Point.002",
			"rotation":[
				-0.7071068286895752,
				0,
				0,
				0.7071068286895752
			],
			"translation":[
				-20,
				25,
				45
			]
		},
		{
			"extensions":{
				"KHR_lights_punctual":{
					"light":3
				}
			},
			"name":"Point.003",
			"rotation":[
				-0.7071068286895752,
				0,
				0,
				0.7071068286895752
			],
			"translation":[
				0,
				5,
				45
			]
		},
		{
			"extensions":{
				"KHR_lights_punctual":{
					"light":4
				}
			},
			"name":"Point.004",
			"rotation":[
				-0.7071068286895752,
				0,
				0,
				0.7071068286895752
			],
			"translation":[
				0,
				30,
				45
			]
		},
		{
			"extensions":{
				"KHR_lights_punctual":{
					"light":5
				}
			},
			"name":"Point.005",
			"rotation":[
				-0.7071068286895752,
				0,
				0,
				0.7071068286895752
			],
			"translation":[
				20,
				25,
				45
			]
		},
		{
			"extensions":{
				"KHR_lights_punctual":{
					"light":6
				}
			},
			"name":"Point.006",
			"rotation":[
				-0.7071068286895752,
				0,
				0,
				0.7071068286895752
			],
			"translation":[
				20,
				25,
				-45
			]
		},
		{
			"extensions":{
				"KHR_lights_punctual":{
					"light":7
				}
			},
			"name":"Point.007",
			"rotation":[
				-0.7071068286895752,
				0,
				0,
				0.7071068286895752
			],
			"translation":[
				0,
				30,
				-45
			]
		},
		{
			"extensions":{
				"KHR_lights_punctual":{
					"light":8
				}
			},
			"name":"Point.008",
			"rotation":[
				-0.7071068286895752,
				0,
				0,
				0.7071068286895752
			],
			"translation":[
				-20,
				25,
				-45
			]
		},
		{
			"extensions":{
				"KHR_lights_punctual":{
					"light":9
				}
			},
			"name":"Point.009",
			"rotation":[
				-0.7071068286895752,
				0,
				0,
				0.7071068286895752
			],
			"translation":[
				20,
				25,
				45
			]
		},
		{
			"extensions":{
				"KHR_lights_punctual":{
					"light":10
				}
			},
			"name":"Point.010",
			"rotation":[
				-0.7071068286895752,
				0,
				0,
				0.7071068286895752
			],
			"translation":[
				0,
				30,
				45
			]
		},
		{
			"extensions":{
				"KHR_lights_punctual":{
					"light":11
				}
			},
			"name":"Point.011",
			"rotation":[
				-0.7071068286895752,
				0,
				0,
				0.7071068286895752
			],
			"translation":[
				0,
				10,
				0
			]
		},
		{
			"extensions":{
				"KHR_lights_punctual":{
					"light":12
				}
			},
			"name":"Point.012",
			"rotation":[
				-0.7071068286895752,
				0,
				0,
				0.7071068286895752
			],
			"translation":[
				0,
				20,
				-15
			]
		},
		{
			"extras":{
				"Team":"Red"
			},
			"name":"PlayerSpawn",
			"translation":[
				0,
				5,
				-24
			]
		},
		{
			"extras":{
				"Weapon":"debug_gun"
			},
			"name":"WeaponSpawn",
			"translation":[
				0,
				5,
				0
			]
		},
		{
			"extras":{
				"Team":"Blue"
			},
			"name":"PlayerSpawn.001",
			"translation":[
				0,
				5,
				24
			]
		}
	],
	"materials":[
		{
			"doubleSided":true,
			"name":"Material.001",
			"pbrMetallicRoughness":{
				"baseColorFactor":[
					0.800000011920929,
					0.800000011920929,
					0.800000011920929,
					1
				],
				"metallicFactor":0,
				"roughnessFactor":0.5
			}
		}
	],
	"meshes":[
		{
			"name":"Map",
			"primitives":[
				{
					"attributes":{
						"POSITION":0,
						"NORMAL":1,
						"TEXCOORD_0":2
					},
					"indices":3,
					"material":0
				}
			]
		}
	],
	"accessors":[
		{
			"bufferView":0,
			"componentType":5126,
			"count":1410,
			"max":[
				20,
				25,
				59.279998779296875
			],
			"min":[
				-20,
				-1,
				-59.279998779296875
			],
			"type":"VEC3"
		},
		{
			"bufferView":1,
			"componentType":5126,
			"count":1410,
			"type":"VEC3"
		},
		{
			"bufferView":2,
			"componentType":5126,
			"count":1410,
			"type":"VEC2"
		},
		{
			"bufferView":3,
			"componentType":5123,
			"count":5076,
			"type":"SCALAR"
		}
	],
	"bufferViews":[
		{
			"buffer":0,
			"byteLength":16920,
			"byteOffset":0,
			"target":34962
		},
		{
			"buffer":0,
			"byteLength":16920,
			"byteOffset":16920,
			"target":34962
		},
		{
			"buffer":0,
			"byteLength":11280,
			"byteOffset":33840,
			"target":34962
		},
		{
			"buffer":0,
			"byteLength":10152,
			"byteOffset":45120,
			"target":34963
		}
	],
	"buffers":[
		{
			"byteLength":55272,
			"uri":"testmap.bin"
		}
	]
}
